<svg xmlns="http://www.w3.org/2000/svg" width="100%" height="100%" viewBox="0 0 1024 906" version="1.1">
	<path d="M 0.496 453.500 C 0.496 702.650, 0.610 804.426, 0.750 679.668 C 0.890 554.911, 0.890 351.061, 0.750 226.668 C 0.610 102.276, 0.496 204.350, 0.496 453.500 M 492.500 99.613 C 414.945 107.278, 352.437 134.274, 296.032 184.463 C 276.820 201.558, 254.867 227.583, 239.904 251 C 230.204 266.180, 215.732 295.169, 209.671 311.559 C 179.538 393.044, 183.295 484.610, 220.029 563.981 C 252.333 633.780, 305.244 689.160, 373.467 724.579 C 453.503 766.131, 546.612 772.024, 630 740.816 C 663.029 728.455, 694.299 710.591, 723.500 687.401 C 738.073 675.827, 766.295 647.347, 777.407 633 C 816.645 582.340, 838.877 529.192, 847.681 465 C 848.950 455.747, 849.395 445.486, 849.393 425.500 C 849.390 396.652, 848.295 384.686, 843.395 360 C 823.916 261.848, 757.859 176.814, 666.641 132.467 C 633.302 116.259, 602.413 107.014, 563 101.448 C 552.048 99.902, 502.604 98.615, 492.500 99.613 M 491.500 113.106 C 451.171 116.851, 412.361 127.808, 377 145.433 C 286.513 190.535, 222.533 276.592, 207.071 374 C 192.783 464.007, 216.527 553.332, 274.089 626.128 C 285.142 640.105, 313.860 668.497, 328 679.427 C 377.211 717.463, 433.013 740.125, 491.856 745.971 C 506.913 747.467, 537.508 747.231, 552.506 745.503 C 623.855 737.284, 688.361 705.639, 741.031 653.018 C 770.233 623.843, 793.098 590.625, 809.325 553.799 C 849.119 463.493, 844.829 358.738, 797.893 274.609 C 741.134 172.872, 634.601 111.256, 517 112.145 C 507.925 112.214, 496.450 112.646, 491.500 113.106 M 505 184.672 C 451.487 188.505, 405.380 205.931, 364.275 237.859 C 310.220 279.846, 277.155 343.340, 273.588 412 C 273.108 421.245, 273.145 421.125, 274.968 407.500 C 278.923 377.932, 285.639 355.415, 297.935 330.500 C 313.912 298.125, 335.129 271.516, 362.563 249.449 C 422.314 201.387, 498.355 183.708, 574.823 200.098 C 601.070 205.724, 635.301 220.325, 658.500 235.789 C 694.372 259.702, 724.582 294.071, 742.189 331 C 755.245 358.385, 761.083 379.742, 765.424 416 C 765.654 417.925, 765.642 414.706, 765.396 408.848 C 764.174 379.692, 755.818 347.834, 741.938 319.404 C 711.608 257.284, 653.409 210.617, 583.754 192.564 C 557.766 185.829, 529.038 182.950, 505 184.672 M 523.174 263.016 C 519.694 263.500, 514.816 264.879, 512.334 266.080 C 504.944 269.658, 503.474 272.276, 485.148 314.500 C 478.348 330.166, 476.037 334.555, 474.483 334.753 C 473.185 334.918, 456.963 323.093, 427.500 300.503 C 402.750 281.526, 382.214 266, 381.864 266 C 379.454 266, 352 298.420, 352 301.267 C 352 301.798, 354.813 305.428, 358.250 309.335 C 373.443 326.600, 406.969 364.345, 425.457 385 C 436.534 397.375, 462.157 426.063, 482.396 448.750 C 502.635 471.438, 519.569 490, 520.028 490 C 520.487 490, 531.566 477.962, 544.648 463.250 C 557.729 448.538, 584.894 418.050, 605.013 395.500 C 625.133 372.950, 652.064 342.652, 664.861 328.172 L 688.127 301.843 686.440 299.172 C 682.564 293.034, 673.513 281.762, 666.172 273.933 C 658.443 265.690, 658.284 265.584, 655.911 267.140 C 654.585 268.009, 646.075 274.486, 637 281.534 C 600.079 310.206, 566.998 335, 565.663 335 C 564.883 335, 563.806 334.438, 563.270 333.750 C 562.032 332.161, 546.368 294.379, 545.502 290.892 C 544.540 287.017, 547.275 281.427, 551.100 279.448 C 554.519 277.680, 561.927 277.150, 565.750 278.399 C 567.452 278.956, 568 278.745, 568 277.535 C 568 274.515, 565.165 269.154, 562.721 267.553 C 557.170 263.916, 534.999 261.373, 523.174 263.016 M 340.010 322.079 C 334.466 333.414, 327.832 352.802, 324.893 366.256 C 322.412 377.614, 320 398.369, 320 408.366 L 320 416.244 326.750 410.372 C 346.369 393.305, 382.778 360.972, 383.898 359.623 C 385.003 358.291, 382.448 354.821, 365.971 335.285 C 355.402 322.753, 346.364 312.351, 345.886 312.169 C 345.408 311.988, 342.764 316.447, 340.010 322.079 M 673.615 335.245 L 654.022 358.490 660.196 363.995 C 684.383 385.562, 718.410 415, 719.152 415 C 720.801 415, 718.005 384.500, 714.844 368 C 713.737 362.225, 710.882 351.577, 708.500 344.338 C 704.063 330.854, 695.660 312, 694.087 312 C 693.604 312, 684.391 322.460, 673.615 335.245 M 354.123 393.096 L 319.886 423.238 320.510 428.869 C 322.993 451.265, 328.712 474.799, 335.084 488.839 C 338.064 495.405, 338.131 495.470, 339.803 493.369 C 340.737 492.198, 359.050 471.765, 380.500 447.963 C 401.950 424.161, 420.033 403.936, 420.684 403.018 C 421.694 401.595, 419.506 398.563, 405.823 382.425 C 396.998 372.016, 389.459 363.377, 389.069 363.227 C 388.679 363.076, 372.953 376.517, 354.123 393.096 M 634.052 382.031 C 625.143 392.498, 617.999 401.457, 618.177 401.940 C 618.978 404.116, 701.488 494.902, 702.065 494.242 C 703.739 492.331, 710.120 475.505, 712.459 466.836 C 715.205 456.658, 718.991 433.280, 718.991 426.500 C 718.991 422.622, 718.591 422.149, 705.887 411 C 698.680 404.675, 683.494 391.293, 672.142 381.261 C 660.789 371.230, 651.219 363.018, 650.875 363.011 C 650.531 363.005, 642.961 371.564, 634.052 382.031 M 383.381 452.421 C 360.346 478.053, 341.376 499.581, 341.225 500.262 C 340.466 503.682, 358.583 531.029, 369.457 542.879 L 375.976 549.983 383.702 540.241 C 387.951 534.884, 406.321 511.809, 424.523 488.964 C 442.725 466.119, 457.947 446.895, 458.350 446.242 C 458.940 445.287, 436.498 417.659, 427.009 407.658 C 425.328 405.887, 423.657 407.602, 383.381 452.421 M 597.509 425.025 C 588.713 435.433, 581.368 444.396, 581.186 444.942 C 581.004 445.489, 587.784 454.613, 596.254 465.218 C 604.723 475.823, 623.401 499.235, 637.759 517.245 L 663.866 549.990 670.479 542.745 C 681.455 530.719, 699.914 502.979, 698.837 500.129 C 698.651 499.639, 680.725 479.546, 659 455.477 C 637.275 431.409, 618.455 410.430, 617.178 408.858 C 615.900 407.286, 614.550 406.023, 614.178 406.051 C 613.805 406.078, 606.304 414.617, 597.509 425.025 M 273.557 445 C 274.704 476.350, 282.227 505.415, 296.982 535.500 C 320.840 584.145, 359.006 622.117, 408.500 646.452 C 444.373 664.091, 478.949 671.973, 520.530 671.992 C 581.891 672.020, 637.283 651.491, 683.811 611.480 C 716.320 583.523, 741.537 546.187, 754.378 507 C 761.167 486.282, 766.113 458.617, 765.820 443 C 765.743 438.875, 765.532 437.075, 765.352 439 C 762.374 470.812, 755.063 497.036, 741.516 524.500 C 683.019 643.088, 543.461 694.570, 421.593 642.517 C 377.785 623.805, 341.158 593.054, 313.781 552 C 291.788 519.019, 278.717 482.497, 274.055 441 C 273.137 432.832, 273.118 432.989, 273.557 445 M 478.782 463.250 C 477.431 465.038, 468.906 477.300, 459.836 490.500 C 450.767 503.700, 434.249 527.673, 423.129 543.773 C 412.009 559.874, 403.171 573.468, 403.489 573.982 C 403.807 574.497, 407.907 577.447, 412.601 580.538 C 440.039 598.607, 474.712 610.121, 506.768 611.809 C 544.131 613.775, 576.864 607.289, 607.006 591.947 C 621.974 584.328, 637.282 574.271, 636.319 572.691 C 635.920 572.036, 627.064 559.125, 616.639 544 C 606.213 528.875, 589.386 504.350, 579.245 489.500 C 569.104 474.650, 560.246 461.912, 559.561 461.194 C 558.552 460.135, 554.761 463.775, 539.515 480.444 C 529.174 491.750, 520.344 501, 519.893 501 C 519.441 501, 510.666 491.775, 500.391 480.500 C 490.117 469.225, 481.604 460, 481.474 460 C 481.344 460, 480.132 461.462, 478.782 463.250" stroke="none" fill="white" fill-rule="evenodd"/>
</svg>
